# xmcd
#
# Track frame offsets:
# 150
# 11292
# 30884
# 44511
# 57867
# 68010
# 79207
# 89701
# 103571
# 118548
# 137845
# 152849
# 165422
# 179292
# 189516
# 202575
# 218092
#
# Disc length: 3117 seconds
#
#
# Revision: 0
# Processed by: cddbd v1.5.1PL2 Copyright (c) Steve Scherf et al.
# Submitted via: FreeRIP 2.942 
#
DISCID=d50c2b11
DTITLE=Pedro Bento and Zé da Estrada - Sete Palavras
DYEAR=2006
DGENRE=Sertaneja
TTITLE0=Mala No Baile
TTITLE1=Sete Palavras
TTITLE2=Dodoi
TTITLE3=O Velho Dançou
TTITLE4=Prega Fogo
TTITLE5=Viola Minha Viola
TTITLE6=Duas De Vinte
TTITLE7=Incendiando o Pavio
TTITLE8=Barretos Portal do Paraíso
TTITLE9=Pantera do Asfalto
TTITLE10=Preto Velho Sebastião
TTITLE11=Video Tape da Lembrança
TTITLE12=Saudações a Minas
TTITLE13=Desafio a Cana Verde
TTITLE14=Os Grandes Nomes da História
TTITLE15=Minha Vida Minha Moda
TTITLE16=Porto das Monções
EXTD=
EXTT0=
EXTT1=
EXTT2=
EXTT3=
EXTT4=
EXTT5=
EXTT6=
EXTT7=
EXTT8=
EXTT9=
EXTT10=
EXTT11=
EXTT12=
EXTT13=
EXTT14=
EXTT15=
EXTT16=
PLAYORDER=
